<?xml version="1.0" encoding="utf-8"?>
<!-- Generator: Adobe Illustrator 16.0.0, SVG Export Plug-In . SVG Version: 6.00 Build 0)  -->
<!DOCTYPE svg PUBLIC "-//W3C//DTD SVG 1.1//EN" "http://www.w3.org/Graphics/SVG/1.1/DTD/svg11.dtd">
<svg version="1.1" id="Capa_1" xmlns="http://www.w3.org/2000/svg" xmlns:xlink="http://www.w3.org/1999/xlink" x="0px" y="0px"
	 width="2310px" height="3300px" viewBox="0 0 2310 3300" enable-background="new 0 0 2310 3300" xml:space="preserve">
<polyline fill="#712D38" points="0,3300 2310,3300 2310,0 0,0 0,3300 "/>
<polyline fill="#FFFFFF" points="250,2804 824,2803 823,2477 496,2475 494,2472 495,2380 501,2325 509,2291 521,2261 534,2239 
	548,2221 560,2208 562,2204 576,2190 580,2188 585,2182 589,2180 594,2174 598,2172 609,2162 613,2160 623,2151 627,2149 641,2137 
	645,2135 655,2126 659,2124 666,2117 670,2115 673,2111 677,2109 679,2106 683,2104 687,2099 691,2097 693,2094 697,2092 705,2083 
	709,2081 736,2054 738,2050 744,2045 746,2041 751,2037 753,2033 762,2022 779,1994 790,1970 801,1938 812,1887 818,1835 822,1767 
	824,1681 823,1366 818,1261 811,1200 802,1153 792,1121 779,1090 776,1087 773,1080 761,1063 752,1054 749,1049 735,1036 731,1034 
	720,1026 710,1021 702,1016 679,1007 643,998 606,993 574,991 494,992 453,997 420,1005 396,1014 380,1022 360,1035 354,1041 
	350,1043 329,1064 312,1089 297,1118 283,1157 272,1203 265,1250 260,1311 260,1649 483,1648 484,1338 490,1312 496,1301 503,1292 
	507,1290 517,1284 526,1282 547,1283 556,1287 558,1290 561,1291 563,1295 566,1298 571,1309 576,1330 580,1365 582,1407 581,1732 
	576,1780 568,1810 560,1827 549,1844 537,1857 535,1861 527,1869 523,1871 519,1876 515,1878 508,1885 504,1887 498,1893 494,1895 
	484,1904 480,1906 466,1918 462,1920 456,1926 452,1928 447,1934 443,1936 434,1945 430,1947 421,1957 417,1959 385,1991 382,1996 
	374,2003 371,2008 364,2015 361,2020 354,2027 344,2042 326,2068 313,2092 301,2114 298,2123 291,2138 279,2171 266,2221 260,2252 
	253,2308 249,2372 250,2804 "/>
<polyline fill="#FFFFFF" points="1157,2804 1233,2803 1280,2797 1318,2787 1350,2774 1378,2756 1385,2749 1389,2747 1406,2730 
	1408,2726 1412,2723 1416,2716 1424,2705 1441,2673 1453,2641 1465,2594 1474,2539 1480,2475 1484,2374 1483,2173 1478,2079 
	1470,2017 1462,1981 1452,1951 1439,1924 1427,1906 1423,1903 1421,1899 1405,1883 1401,1881 1387,1871 1372,1863 1348,1854 
	1337,1851 1338,1845 1365,1836 1389,1824 1403,1814 1420,1798 1422,1794 1429,1785 1439,1767 1449,1740 1459,1697 1466,1641 
	1471,1554 1473,1375 1470,1283 1463,1215 1453,1163 1446,1140 1434,1109 1424,1090 1412,1072 1397,1056 1394,1051 1386,1045 
	1384,1042 1380,1040 1378,1037 1374,1035 1363,1027 1351,1021 1345,1017 1313,1005 1279,997 1238,992 1148,992 1104,998 1073,1006 
	1047,1016 1031,1024 1005,1041 995,1051 991,1053 981,1063 978,1068 972,1073 957,1095 952,1105 943,1121 929,1158 919,1199 
	912,1246 909,1286 909,1559 1126,1558 1127,1336 1132,1311 1138,1298 1147,1288 1159,1282 1173,1279 1202,1279 1217,1283 1229,1293 
	1231,1297 1237,1309 1242,1331 1246,1378 1245,1565 1240,1629 1233,1666 1226,1685 1219,1697 1213,1703 1211,1707 1200,1715 
	1183,1722 1159,1726 1073,1728 1074,2014 1193,2015 1213,2019 1223,2024 1232,2031 1234,2035 1240,2043 1247,2063 1253,2097 
	1257,2158 1257,2377 1253,2436 1247,2470 1239,2491 1229,2505 1225,2507 1222,2510 1208,2515 1172,2515 1155,2509 1153,2506 
	1149,2504 1146,2502 1144,2498 1139,2492 1133,2478 1128,2452 1126,2424 1125,2221 908,2222 909,2510 914,2580 921,2624 930,2659 
	942,2690 951,2707 963,2725 971,2733 973,2737 987,2751 991,2753 994,2757 1016,2771 1039,2782 1065,2791 1096,2798 1138,2803 
	1157,2804 "/>
<polyline fill="#FFFFFF" points="1570,2804 1815,2803 1847,2611 1863,2508 1879,2416 1895,2313 1911,2221 1927,2118 1943,2026 
	1960,1917 1975,1831 1992,1722 2007,1636 2024,1527 2039,1441 2056,1332 2061,1306 2060,991 1536,992 1537,1300 1826,1301 
	1826,1317 1813,1387 1806,1432 1781,1572 1765,1669 1740,1809 1733,1854 1708,1994 1692,2091 1667,2231 1651,2328 1626,2468 
	1619,2513 1594,2653 1578,2750 1569,2803 1570,2804 "/>
<polyline fill="#FFFFFF" points="427,803 425,802 424,798 417,789 405,768 380,727 355,686 333,650 312,617 303,601 285,573 
	279,562 261,534 255,523 240,500 238,496 199,497 200,504 212,506 217,510 222,517 221,883 215,891 199,894 200,901 269,900 
	268,889 253,888 248,884 245,877 245,585 248,585 266,615 284,643 290,654 308,682 314,693 335,726 341,737 359,765 365,776 
	383,804 389,815 407,843 413,854 431,882 437,893 445,906 452,905 453,515 457,508 462,504 473,503 472,500 407,501 408,508 
	421,509 428,515 430,521 429,803 430,805 427,805 427,803 "/>
<polyline fill="#FFFFFF" points="637,906 683,905 702,900 728,888 744,877 748,872 752,870 767,855 770,850 781,837 794,815 
	805,791 813,765 818,738 818,664 811,630 801,602 791,582 776,559 760,542 757,537 749,531 744,525 737,521 729,515 712,506 
	690,499 672,496 634,497 610,503 585,515 569,526 563,533 559,535 550,544 547,549 541,554 526,576 520,588 515,596 504,625 
	497,656 494,686 495,731 500,762 510,794 523,821 536,841 551,859 566,874 570,876 573,880 595,893 617,902 637,906 "/>
<polyline fill="#FFFFFF" points="902,906 985,902 985,894 971,893 966,889 963,882 963,525 965,523 1019,524 1032,530 1042,540 
	1047,548 1054,568 1057,582 1062,582 1060,496 827,497 822,582 828,582 832,561 840,543 847,534 851,532 853,529 861,525 870,523 
	923,524 925,527 924,885 919,894 915,897 901,899 902,906 "/>
<polyline fill="#FFFFFF" points="1084,906 1102,905 1101,898 1088,897 1081,893 1077,888 1077,875 1119,758 1123,756 1248,757 
	1251,760 1285,853 1294,875 1296,893 1291,897 1278,899 1278,906 1355,902 1355,894 1342,890 1335,881 1281,733 1199,508 1194,496 
	1186,497 1136,638 1058,854 1050,878 1041,889 1027,894 1027,902 1084,906 "/>
<polyline fill="#FFFFFF" points="1393,906 1475,905 1474,895 1460,893 1456,890 1453,885 1453,709 1468,708 1476,709 1486,716 
	1495,724 1509,744 1514,754 1529,782 1532,791 1543,815 1565,877 1574,896 1582,906 1602,905 1610,900 1618,892 1626,876 1629,865 
	1628,856 1625,857 1622,873 1619,878 1611,878 1604,865 1600,852 1591,830 1581,813 1575,801 1558,773 1545,754 1535,741 1513,718 
	1520,715 1535,713 1554,706 1570,696 1572,693 1576,691 1587,680 1600,657 1606,636 1608,621 1607,584 1601,559 1593,542 1583,528 
	1569,514 1550,503 1529,497 1392,497 1393,504 1405,505 1412,511 1415,526 1414,884 1411,892 1406,897 1392,899 1393,906 "/>
<polyline fill="#FFFFFF" points="1658,906 1758,905 1757,895 1739,894 1733,889 1730,878 1731,526 1735,519 1739,516 1758,514 
	1757,510 1657,511 1658,518 1678,520 1683,526 1685,534 1684,888 1680,895 1678,897 1657,900 1658,906 "/>
<polyline fill="#FFFFFF" points="1841,906 1855,905 1854,898 1839,896 1831,890 1829,880 1835,860 1873,757 2003,757 2008,767 
	2019,798 2049,875 2051,892 2048,896 2032,899 2033,906 2110,902 2110,894 2098,890 2091,882 2081,858 2059,796 2024,703 2002,641 
	1967,548 1948,496 1940,497 1888,640 1848,753 1822,823 1807,864 1805,873 1799,883 1796,887 1792,889 1788,892 1780,893 1780,902 
	1841,906 "/>
<polyline fill="#712D38" points="645,880 675,879 696,873 712,865 722,856 726,854 734,846 737,841 742,836 755,814 765,790 
	772,765 776,737 776,665 774,659 773,643 765,613 756,591 748,576 735,558 726,548 722,546 720,543 713,539 698,530 679,524 
	636,524 619,529 610,533 596,542 576,561 570,570 557,592 546,621 539,654 537,674 538,737 543,769 553,801 561,818 567,828 
	577,842 591,857 595,859 601,865 605,866 612,871 632,878 645,880 "/>
<polyline fill="#8B6050" points="427,803 427,805 430,805 429,803 427,803 "/>
<polyline fill="#712D38" points="1133,726 1236,724 1190,598 1184,584 1182,585 1132,725 1133,726 "/>
<polyline fill="#712D38" points="1887,726 1991,725 1959,638 1939,585 1936,585 1929,606 1886,721 1887,726 "/>
<polyline fill="#712D38" points="1458,694 1516,693 1534,687 1546,679 1558,664 1559,660 1563,652 1567,632 1566,588 1561,567 
	1552,549 1542,538 1538,536 1532,531 1519,526 1507,524 1476,525 1461,531 1454,538 1454,693 1458,694 "/>
<polyline fill="#FFFFFF" points="1672,484 1698,483 1704,477 1708,475 1714,469 1718,467 1728,458 1732,456 1738,450 1742,448 
	1748,442 1752,440 1755,436 1759,434 1762,430 1766,428 1775,418 1779,416 1782,412 1781,405 1772,399 1753,397 1741,409 1737,411 
	1728,420 1725,425 1716,433 1713,438 1706,444 1703,449 1696,455 1693,460 1684,468 1681,473 1675,478 1674,481 1671,483 1672,484 
	"/>
</svg>
